<svg xmlns="http://www.w3.org/2000/svg" version="1.1" xmlns:xlink="http://www.w3.org/1999/xlink" xmlns:svgjs="http://svgjs.dev/svgjs" width="2000" height="1247" viewBox="0 0 2000 1247"><g transform="matrix(1,0,0,1,-1.2121212121212466,0.504858299595071)"><svg viewBox="0 0 396 247" data-background-color="#ffffff" preserveAspectRatio="xMidYMid meet" height="1247" width="2000" xmlns="http://www.w3.org/2000/svg" xmlns:xlink="http://www.w3.org/1999/xlink"><g id="tight-bounds" transform="matrix(1,0,0,1,0.2400000000000091,-0.09999999999999432)"><svg viewBox="0 0 395.52 247.2" height="247.2" width="395.52"><g><svg></svg></g><g><svg viewBox="0 0 395.52 247.2" height="247.2" width="395.52"><mask id="a8562807-911b-4f16-8ab1-685c243f1257"><rect width="640" height="400" fill="white"></rect><g transform="matrix(1,0,0,1,128.63150442477877,37.08)"><svg viewBox="0 0 138.25699115044245 173.04" height="173.04" width="138.25699115044245"><g><svg viewBox="0 0 138.25699115044245 173.04" height="173.04" width="138.25699115044245"><g><svg viewBox="0 0 138.25699115044245 173.04" height="173.04" width="138.25699115044245"><g><svg viewBox="0 0 138.25699115044245 173.04" height="173.04" width="138.25699115044245"><g id="SvgjsG6941"><svg viewBox="0 0 138.25699115044245 173.04" height="173.04" width="138.25699115044245" id="SvgjsSvg6940"><g><svg viewBox="0 0 138.25699115044245 173.04" height="173.04" width="138.25699115044245"><g transform="matrix(1,0,0,1,0,0)"><svg width="138.25699115044245" viewBox="-2 -36.55 32.6 40.55" height="173.04" data-palette-color="#001f3f"><path d="M26.35-7.5L26.6-7.3 26.6-1Q24.2-0.5 21.9-0.25 19.6 0 16.45 0L16.45 0Q12.4 0 9.63-0.7 6.85-1.4 5.18-3.18 3.5-4.95 2.75-8.2 2-11.45 2-16.55L2-16.55Q2-21.45 2.75-24.6 3.5-27.75 5.18-29.48 6.85-31.2 9.63-31.88 12.4-32.55 16.45-32.55L16.45-32.55Q19.6-32.55 21.9-32.33 24.2-32.1 26.6-31.55L26.6-31.55 26.6-25.05 26.45-24.95Q24.35-25.45 22.4-25.68 20.45-25.9 17.6-25.9L17.6-25.9Q15.3-25.9 13.83-25.58 12.35-25.25 11.5-24.3 10.65-23.35 10.33-21.5 10-19.65 10-16.55L10-16.55Q10-13.3 10.33-11.33 10.65-9.35 11.5-8.35 12.35-7.35 13.83-7 15.3-6.65 17.6-6.65L17.6-6.65Q20.4-6.65 22.38-6.83 24.35-7 26.35-7.5L26.35-7.5Z" opacity="1" transform="matrix(1,0,0,1,0,0)" fill="black" class="wordmark-text-0" id="SvgjsPath6939" stroke-width="7" stroke="black" stroke-linejoin="round"></path></svg></g></svg></g></svg></g></svg></g><g></g></svg></g></svg></g></svg></g></mask><g transform="matrix(1,0,0,1,128.63150442477877,37.08)"><svg viewBox="0 0 138.25699115044245 173.04" height="173.04" width="138.25699115044245"><g><svg viewBox="0 0 138.25699115044245 173.04" height="173.04" width="138.25699115044245"><g><svg viewBox="0 0 138.25699115044245 173.04" height="173.04" width="138.25699115044245"><g><svg viewBox="0 0 138.25699115044245 173.04" height="173.04" width="138.25699115044245"><g id="textblocktransform"><svg viewBox="0 0 138.25699115044245 173.04" height="173.04" width="138.25699115044245" id="textblock"><g><svg viewBox="0 0 138.25699115044245 173.04" height="173.04" width="138.25699115044245"><g transform="matrix(1,0,0,1,0,0)"><svg width="138.25699115044245" viewBox="-2 -36.55 32.6 40.55" height="173.04" data-palette-color="#001f3f"><path d="M26.35-7.5L26.6-7.3 26.6-1Q24.2-0.5 21.9-0.25 19.6 0 16.45 0L16.45 0Q12.4 0 9.63-0.7 6.85-1.4 5.18-3.18 3.5-4.95 2.75-8.2 2-11.45 2-16.55L2-16.55Q2-21.45 2.75-24.6 3.5-27.75 5.18-29.48 6.85-31.2 9.63-31.88 12.4-32.55 16.45-32.55L16.45-32.55Q19.6-32.55 21.9-32.33 24.2-32.1 26.6-31.55L26.6-31.55 26.6-25.05 26.45-24.95Q24.35-25.45 22.4-25.68 20.45-25.9 17.6-25.9L17.6-25.9Q15.3-25.9 13.83-25.58 12.35-25.25 11.5-24.3 10.65-23.35 10.33-21.5 10-19.65 10-16.55L10-16.55Q10-13.3 10.33-11.33 10.65-9.35 11.5-8.35 12.35-7.35 13.83-7 15.3-6.65 17.6-6.65L17.6-6.65Q20.4-6.65 22.38-6.83 24.35-7 26.35-7.5L26.35-7.5Z" opacity="1" transform="matrix(1,0,0,1,0,0)" fill="#001f3f" class="wordmark-text-0" data-fill-palette-color="primary" id="text-0"></path></svg></g></svg></g></svg></g></svg></g><g></g></svg></g></svg></g></svg></g><g mask="url(#a8562807-911b-4f16-8ab1-685c243f1257)"><g transform="matrix(1.946031746031746, 0, 0, 1.946031746031746, 75.16, 1)"><svg xmlns="http://www.w3.org/2000/svg" xmlns:xlink="http://www.w3.org/1999/xlink" version="1.1" x="0" y="0" viewBox="1 1 126 126" style="enable-background:new 0 0 128 128;" xml:space="preserve" height="126" width="126" class="icon-none" data-fill-palette-color="accent" id="none"><g fill="#0074d9" data-fill-palette-color="accent"><path d="M110.937 52.703c-7.691-4.44-16.653-5.62-25.231-3.321-8.267 2.215-15.218 7.411-19.687 14.668 9.403 17.409 3.288 39.323-13.954 49.278-5.771 3.331-12.084 4.915-18.313 4.915-0.632 0-1.264-0.028-1.894-0.062C41.271 123.777 52.257 127 64 127c31.814 0 58.104-23.586 62.378-54.223C124.154 64.602 118.837 57.265 110.937 52.703z" fill="#0074d9" data-fill-palette-color="accent"></path><path d="M64 1c-8.339 0-16.291 1.635-23.575 4.577C34.448 11.591 30.749 19.872 30.749 29c0 18.01 14.396 32.711 32.285 33.226 4.938-8.026 12.624-13.774 21.766-16.224 9.482-2.54 19.386-1.237 27.887 3.671 6.348 3.666 11.181 8.957 14.295 15.043C126.983 64.476 127 64.24 127 64 127 29.206 98.795 1 64 1z" fill="#0074d9" data-fill-palette-color="accent"></path><path d="M50.314 110.297c15.598-9.006 21.13-28.825 12.632-44.574C43.168 65.162 27.249 48.91 27.249 29c0-7.337 2.17-14.175 5.891-19.918C13.961 19.882 1 40.421 1 64c0 20.167 9.486 38.105 24.228 49.636C33.414 115.793 42.419 114.854 50.314 110.297z" fill="#0074d9" data-fill-palette-color="accent"></path></g></svg></g></g></svg></g><defs></defs></svg><rect width="395.52" height="247.2" fill="none" stroke="none" visibility="hidden"></rect></g></svg></g></svg>